<?xml version="1.0" encoding="utf-8"?>
<!-- Generated by IcoMoon.io -->
<svg version="1.1" xmlns="http://www.w3.org/2000/svg" xmlns:xlink="http://www.w3.org/1999/xlink" width="752" height="32" viewBox="0 0 752 32">
<svg id="icon-arrow-right" width="32" height="32" viewBox="0 0 32 32" x="0" y="0">
<path fill="#d31342" d="M16.414 12.591c-0.131 0.076-0.254 0.333-0.254 0.532 0 0.126 0.050 0.214 0.197 0.35 0.109 0.099 0.215 0.181 0.238 0.181s0.126 0.112 0.231 0.249c0.105 0.138 0.306 0.328 0.447 0.423 0.319 0.214 0.436 0.451 0.323 0.65-0.042 0.074-0.144 0.185-0.226 0.246-0.146 0.109-0.218 0.113-2.566 0.138-1.933 0.022-2.432 0.042-2.502 0.099-0.214 0.178-0.234 0.788-0.035 1.034l0.098 0.121 2.427 0.026c2.361 0.026 2.432 0.030 2.578 0.138 0.082 0.062 0.185 0.172 0.226 0.246 0.113 0.198-0.004 0.435-0.323 0.65-0.17 0.123-0.317 0.262-0.444 0.419l-0.003 0.004c-0.105 0.137-0.209 0.249-0.231 0.249s-0.129 0.082-0.238 0.181c-0.147 0.135-0.197 0.223-0.197 0.35 0 0.206 0.126 0.461 0.264 0.535 0.162 0.087 0.547 0.064 0.722-0.043 0.088-0.054 0.803-0.744 1.588-1.533 1.548-1.555 1.594-1.619 1.482-2.039-0.044-0.165-0.326-0.475-1.482-1.635-0.786-0.787-1.5-1.476-1.588-1.53-0.174-0.107-0.58-0.13-0.733-0.041z"></path>
</svg>
<svg id="icon-home" width="35" height="32" viewBox="0 0 35 32" x="240" y="0">
<path fill="#d31342" d="M32.64 15.401c0.599-0.65 0.541-1.646-0.129-2.225l-14.772-12.75c-0.671-0.578-1.745-0.566-2.402 0.027l-14.822 13.403c-0.656 0.594-0.689 1.589-0.071 2.222l0.372 0.382c0.617 0.633 1.613 0.708 2.224 0.168l1.108-0.979v14.326c0 0.879 0.722 1.591 1.612 1.591h5.778c0.89 0 1.612-0.712 1.612-1.591v-10.023h7.37v10.023c-0.013 0.878 0.624 1.59 1.515 1.59h6.123c0.89 0 1.613-0.711 1.613-1.59v-14.124c0 0 0.306 0.264 0.683 0.592s1.168 0.065 1.767-0.586l0.42-0.455z"></path>
</svg>
<svg id="icon-cat" width="32" height="32" viewBox="0 0 32 32" x="288" y="0">
<path fill="#fff" d="M16 0.941c-8.271 0-15.059 6.788-15.059 15.059 0 7.058 4.953 13.47 11.529 15.059v-4.982c-0.652 0.143-1.251 0.147-1.915-0.049-0.89-0.263-1.613-0.856-2.15-1.76-0.342-0.577-0.949-1.203-1.581-1.157l-0.155-1.758c1.368-0.117 2.551 0.833 3.254 2.013 0.312 0.525 0.671 0.832 1.132 0.969 0.446 0.131 0.924 0.068 1.481-0.129 0.14-1.116 0.651-1.534 1.037-2.122v-0.001c-3.922-0.585-5.486-2.666-6.106-4.308-0.822-2.181-0.381-4.905 1.073-6.627 0.028-0.034 0.079-0.121 0.060-0.183-0.667-2.014 0.146-3.679 0.176-3.856 0.769 0.228 0.894-0.229 3.342 1.258l0.423 0.254c0.177 0.105 0.121 0.045 0.298 0.032 1.022-0.278 2.099-0.431 3.16-0.445 1.069 0.014 2.14 0.167 3.204 0.456l0.137 0.014c-0.012-0.002 0.037-0.009 0.12-0.058 3.057-1.852 2.947-1.247 3.767-1.513 0.030 0.177 0.831 1.87 0.172 3.858-0.089 0.274 2.65 2.782 1.132 6.809-0.62 1.643-2.184 3.724-6.106 4.309v0.001c0.503 0.766 1.107 1.174 1.104 2.755v6.219c6.577-1.589 11.529-8.001 11.529-15.059 0-8.271-6.787-15.059-15.059-15.059v0z"></path>
</svg>
<svg id="icon-facebook" width="16" height="32" viewBox="0 0 16 32" x="336" y="0">
<path fill="#fff" d="M14.266 15.97h-4.176v15.39h-6.327v-15.39h-3.009v-5.409h3.009v-3.5c0-2.503 1.182-6.422 6.384-6.422l4.687 0.020v5.25h-3.401c-0.558 0-1.342 0.28-1.342 1.474v3.183h4.729l-0.553 5.403z"></path>
</svg>
<svg id="icon-telegram" width="40" height="32" viewBox="0 0 40 32" x="384" y="0">
<path fill="#fff" d="M16.205 20.751l-0.635 8.339c0.909 0 1.302-0.364 1.774-0.802l4.261-3.801 8.829 6.035c1.619 0.842 2.76 0.399 3.197-1.39l5.797-25.346c0.514-2.234-0.866-3.108-2.443-2.56l-34.065 12.172c-2.325 0.842-2.29 2.052-0.395 2.6l8.709 2.528 20.229-11.814c0.952-0.588 1.818-0.263 1.106 0.326l-16.364 13.713z"></path>
</svg>
<svg id="icon-ellipse-white" width="32" height="32" viewBox="0 0 32 32" x="432" y="0">
<path fill="#fff" d="M32 16c0 8.837-7.163 16-16 16s-16-7.163-16-16c0-8.837 7.163-16 16-16s16 7.163 16 16z"></path>
</svg>
<svg id="icon-ellipse-gray" width="35" height="32" viewBox="0 0 35 32" x="480" y="0">
<path fill="#d9d9d9" d="M33.053 16c0 8.837-7.163 16-16 16s-16-7.163-16-16c0-8.837 7.163-16 16-16s16 7.163 16 16z"></path>
</svg>
</svg>
